<svg width="428" height="482" viewBox="0 0 428 482" fill="none" xmlns="http://www.w3.org/2000/svg">
<path d="M427.685 0L387.583 434.363L213.84 481.144L40.0933 434.363L0 0H427.685ZM346.878 88.3209H213.683H78.1293L84.612 140.774H213.683H220.934L213.683 143.792L89.3293 195.584L93.4534 246.856L213.683 247.246L278.123 247.45L273.998 315.814L213.682 332.796V332.742L213.188 332.88L154.938 318.175L151.404 275.738H151.211H97.1811H96.9909L104.063 357.662L213.684 390.079V390.021L213.882 390.079L322.916 358.252L337.059 195.584H213.684H213.38L213.684 195.453L341.579 140.774L346.878 88.3209Z" fill="black"/>
</svg>
