<svg width="452" height="441" viewBox="0 0 452 441" fill="none" xmlns="http://www.w3.org/2000/svg">
<path d="M336.935 138.515C332.896 142.617 327.305 145.15 321.111 145.15C320.644 145.15 320.177 145.135 319.725 145.105H319.785C319.634 145.105 319.453 145.105 319.288 145.105C312.958 145.105 307.216 142.586 303.011 138.5C299.033 134.156 296.591 128.35 296.591 121.971C296.591 121.685 296.591 121.398 296.606 121.127V121.172C296.591 120.931 296.591 120.659 296.591 120.373C296.591 114.099 299.183 108.444 303.358 104.403C307.698 100.316 313.546 97.8123 319.996 97.8123C320.056 97.8123 320.116 97.8123 320.177 97.8123C320.523 97.7973 320.93 97.7822 321.337 97.7822C327.576 97.7822 333.213 100.316 337.297 104.403C341.155 108.625 343.521 114.265 343.521 120.448C343.521 120.705 343.521 120.961 343.506 121.202V121.172C343.521 121.428 343.521 121.73 343.521 122.017C343.521 128.411 341.035 134.217 336.935 138.515ZM340.869 308.683C340.869 310.749 340.13 311.7 338.442 311.7H301.504C301.444 311.7 301.369 311.715 301.293 311.715C299.831 311.715 298.656 310.523 298.656 309.076C298.656 308.94 298.671 308.804 298.686 308.683V308.699V163.594C298.686 161.709 299.455 160.955 301.158 160.955H338.442C340.13 160.955 340.869 161.89 340.869 163.594V308.683ZM276.833 311.519H237.454C237.378 311.519 237.288 311.534 237.198 311.534C235.901 311.534 234.801 310.659 234.47 309.468L219.022 264.603H148.959L134.642 308.895C134.325 310.433 132.984 311.564 131.386 311.564C131.281 311.564 131.16 311.564 131.055 311.549H95.6687C93.604 311.549 93.0313 310.403 93.604 308.156L154.248 133.448C154.806 131.563 155.379 129.497 156.132 127.234C156.856 123.585 157.263 119.377 157.263 115.08C157.263 115.049 157.263 115.004 157.263 114.974C157.248 114.899 157.248 114.823 157.248 114.733C157.248 113.828 157.896 113.059 158.755 112.893H158.77H207.553C209.061 112.893 209.814 113.451 209.995 114.401L278.732 308.502C279.305 310.553 278.717 311.519 276.833 311.519ZM371.945 0H80.0404C80.0253 0 79.9952 0 79.9801 0C35.8079 0 0 35.8313 0 80.0324C0 80.0625 0 80.0776 0 80.1078V360.907C0 360.922 0 360.953 0 360.968C0 405.169 35.8079 441 79.9801 441C80.0103 441 80.0253 441 80.0555 441H371.96C371.975 441 372.005 441 372.02 441C416.192 441 452 405.169 452 360.968C452 360.937 452 360.922 452 360.892V80.0927C452 80.0776 452 80.0475 452 80.0324C452 35.8313 416.192 0 372.02 0C371.99 0 371.975 0 371.945 0ZM198.3 196.56C196.416 190.723 194.728 185.068 192.844 179.217C190.961 173.366 189.273 167.907 187.766 162.447C186.259 157.169 184.947 152.268 183.621 147.744H183.244C181.21 157.576 179.01 165.735 176.372 173.682L176.839 172.054C174.021 181.102 171.188 190.527 168.174 199.938C165.536 209.544 162.718 218.411 159.885 226.329H207.719C206.589 222.347 205.082 217.657 203.394 212.741C201.706 207.674 199.988 202.2 198.3 196.56Z" fill="black"/>
</svg>
