<svg width="461" height="461" viewBox="0 0 461 461" fill="none" xmlns="http://www.w3.org/2000/svg">
<path fill-rule="evenodd" clip-rule="evenodd" d="M353.31 424.861C313.088 424.861 287.088 405.685 274.41 380.606L309.677 360.179C318.966 375.346 331.021 386.481 352.388 386.481C370.321 386.481 381.777 377.509 381.777 365.131C381.777 346.506 356.929 339.229 339.388 331.715C308.132 318.415 287.387 301.704 287.387 266.414C287.387 233.937 312.143 209.183 350.844 209.183C378.366 209.183 398.189 218.77 412.411 243.826L378.688 265.491C371.266 252.192 363.222 246.932 350.844 246.932C338.144 246.932 330.099 254.981 330.099 265.491C330.099 278.492 338.144 283.75 356.722 291.794C395.654 308.482 425.111 321.593 425.111 364.512C425.111 403.512 394.478 424.861 353.31 424.861ZM253.55 359.56C253.55 404.438 225.913 428.158 187.534 428.158C152.867 428.158 132.099 414.9 121.888 391.85H121.543H121.381H121.289L156.532 367.213C163.332 379.268 169.464 387.821 184.308 387.821C198.553 387.821 207.45 380.607 207.45 358.963V207.45H253.55V359.56ZM0 461H461V0H0V461Z" fill="black"/>
</svg>
