<svg width="88" height="99" viewBox="0 0 88 99" fill="none" xmlns="http://www.w3.org/2000/svg">
<path d="M20.3516 2.35786C20.3516 2.35786 31.0611 -2.85506 38.4316 2.22128C45.802 7.29762 56.9755 24.9396 48.9433 56.7331C40.9112 88.5266 26.718 104.924 11.247 97.0403C-4.22402 89.1564 -9.86021 51.0953 35.3967 22.2611C48.0534 15.4471 73.7167 -2.04315 85.4987 10.5149C97.2807 23.073 62.4671 81.5078 83.0875 87.1153C76.6603 97.268 65.4107 104.211 57.2417 93.9293C47.2015 79.9067 65.8139 28.1493 65.8139 28.1493C65.8139 28.1493 57.2417 20.6676 27.1135 48.4547C11.9848 60.6106 11.8479 76.6439 16.0009 76.6439C27.5167 76.7805 46.9657 24.4464 20.3516 2.35786Z" fill="black"/>
</svg>
