<svg width="446" height="446" viewBox="0 0 446 446" fill="none" xmlns="http://www.w3.org/2000/svg">
<path d="M370.955 0H74.1913C33.386 0 0 33.386 0 74.1913V370.956C0 411.761 33.386 445.147 74.1913 445.147H370.956C411.761 445.147 445.147 411.761 445.147 370.956V74.1913C445.146 33.386 411.76 0 370.955 0ZM213.277 226.514C197.827 241.964 173.544 249.22 146.111 249.22C138.858 249.22 132.236 248.902 127.19 247.956V328.052H88.7217V118.354C102.596 115.832 121.832 113.938 148.002 113.938C176.385 113.938 197.197 119.93 210.757 131.283C223.371 141.691 231.568 158.402 231.568 178.268C231.567 198.451 225.261 215.161 213.277 226.514ZM293.989 331.208C275.383 331.208 258.672 326.792 247.319 320.484L254.887 292.42C263.715 297.781 280.43 303.458 294.304 303.458C311.33 303.458 318.901 296.52 318.901 286.428C318.901 276.025 312.595 270.662 293.674 264.04C263.715 253.633 251.105 237.237 251.42 219.262C251.42 192.143 273.807 171.016 309.44 171.016C326.47 171.016 341.29 175.432 350.117 180.16L342.55 207.594C335.928 203.812 323.628 198.765 310.07 198.765C296.195 198.765 288.627 205.387 288.627 214.846C288.627 224.624 295.88 229.355 315.432 236.292C343.181 246.381 356.11 260.571 356.425 283.278C356.424 311.026 334.668 331.208 293.989 331.208ZM192.78 179.844C192.78 204.757 175.12 218.947 146.111 218.947C138.228 218.947 131.921 218.631 127.19 217.371V145.473C131.291 144.528 138.859 143.582 149.581 143.582C176.385 143.582 192.78 156.196 192.78 179.844Z" fill="black"/>
</svg>
